/* XPM */
static char *_d4af138d2894b4ec6fcc087dbc48ca8peTDSK0qsx5XmUK1[] = {
/* columns rows colors chars-per-pixel */
"64 64 12 1 ",
"  c #203A4F",
". c #1D374B",
"X c #183044",
"o c #112A3D",
"O c #07141E",
"+ c #0D2232",
"@ c #0A1B28",
"# c #3C5E7C",
"$ c #304E68",
"% c #365672",
"& c #2A475F",
"* c #254058",
/* pixels */
"@+o+O+++o++@O+ooo++++oo.o+.   #%@+X      .$%X+X.   .&#XO++o@O+oo",
"@@+@@@@O@+@@@+@++@@O++++@Oo   $%@o.       .% Oo.    .#.@+@@O@@++",
"###o$##&&#####&%##%$##$$oOoX  %%+o        .$$@o.    *#.*##&*%##$",
"$*#+o*$%%***&%%%**##$&##o@o..$#%+oX        #$@oX    #%++**%#&*&#",
". #+@X **...     .*& .*#X+X  &#%@@o.      *#$O+o  .*#$+@X. $ ..*",
".$#++oX.    .   ..X. ..#X+....&#@+X        $$@o.   .$#X+o.X.  ..",
"+.$+OoooXXXo+XXXo+oXXoo$X@XXoX.$+o.       .$$@X     *#X@XooX.o+X",
"OO+OOO@+O@OOO@+++O@++@@+@O++OO@++oX       .%$@o.    .#XO@+O@+OO@",
"+&&&&&oOOOO@OOOOOOOOOOOOOOOOo*&*@+o.     .*#$Oo.     #X $*o &&*o",
"+&##$%#*O+.o+O@@O@@OOOOOOOOOo*&%@+X  .XXXX %$OoX.  .$#+.%%%#%##$",
"@o %*.$#X$&..XX ++ooXX+@OOOO@oX$+ooooo+oooo.*@o+ooooX*X+X $&. &#",
"@o     #$%   .o .X      oOOOO@+o@+@OO@@O@OO@@O@O@+O@@@@@o  . .$%",
"O+.    %$$    .. .X     *+OO*%$$$$$%.&$ .*$$$&$$$$&X +O@+X    %$",
"@oX    # %&.     o+XX.   XOOo&%###%%.$#####%$$%####%#%+O@+    *#",
"@oX  .&#X&      XXXXoo.  .@O+o.$$ **o  * &$ ..  &#%* #.@@..    $",
"O@o.   #X$&     .  .   X. +O@o.     X.    .     .&*. #*o+oOo   $",
"O@oX . # %%*.. *&&..** X.X+O@o.    &oX           . .$#XX+@OO..*#",
"@oooXoo&$%&*&%%%%%%%%%%%%%$@Oo    *&X.X            .$%+Xoo+OX %#",
"OOO@@@+@o. $$&.oo.$$**&$* *o@o.   *X. X.  **.  .     %oXooo@X$#&",
"o$&$$&&o$*X %$&&+$%$%$$%&&&X+oo   .        &.. X.   .$*oooo@X*%%",
"@**&$*$o*%#%$$#$+*$ ** $&&#*@oX.             XX.    .&*ooooo+.&#",
"@oX X*#@+.&$..&*@+X  ... .% +o.  .XoX..   .XX$o.X  ..$*Xoooo@+&#",
"@ooXXX$@@X   .&&O+XXXooXXX  @XoXXoo+oooXXXooX.oooXooo  .XooX+O+$",
"OO+OO@+O+.   .$%O@@O@++@OO@@O+@O@@OOO++@O+@@o@@+@OO@@@OooX++X+OO",
"&.o*&&*@+     #%o& XX*&+X$*X*&&.+&&& X &*&*Xo &&& o&&*X**&&. $&.",
"%#%#$$#+oX    $&@&#%%%#&o$%##$%%+&%%####&&#%$##%#%+&%###&&###$%#",
"*#$*.*%+ooX  .&%@o*%%.$&@X.$&X*%+oX.$%**..*%%** #&O+X&%*. *$&. *",
"     *#@+XoXXo.%@+X   % O+.  .&#@@X   .      ..$# O@X     .    .",
"     %&OO@++OO++O@X .&#oOo    %%O+o.           *#$@o.           ",
"  .X $$@X*  * XXO+X   %*OX. X$# O+.  .          #%+X   X.       ",
"X.o+X %+.$$**$%%+o   .**OX*X.&#&O+.   .. ..    .&*@X..oooXX.XoX.",
"+@OO@oX@+ooooXo*@o   .$&@* X .$#@+X .* ..X.     %$O@++@O@+@++@O+",
"o@oXX@OOOOOOOOO@O+   $#*OXXX  $$O@oXo. &oX   ...%%+XXX+@@+XXXXXX",
"#&%##X.+OOOO+@@OO+X .&#*O+X.X #&OOooooo+O+XXXoo+X*o%###%&#######",
"%#**%.# XooX  XOOoo.Xo&&OoX.oX %@O@+@OOOO@+++@OO+O@X &$%#$*   *%",
" *.*#o%*      X@OO@OOO@+OO++O@+o@@OOOOOOOOOOOOOOOO@+. . *.      ",
"   $%+&% .X.  +O+*   oX  Xo   o+ *o+++O+@@oo+OOOOOOOX   .       ",
".  #&o$$. ... oO@&#############$&$.   ..X.   Xo.+OO@X  .  .     ",
"oX.&%*#* &$$$ .@OO. &$$..$$* &#%*% ....   Xo  . XOOooXXoXXoXX  .",
"@++o *#$$$&#%## OOo .        .&%&#%&&&&##&&* *&&$.@o++O@+++ooo++",
"@OO+@+X+oXXXX*  OO+          .&%.  $&*XXX..X+oX*$ +@OO@@@@O+++@@",
"% $##%*%$o%%&&#$@O+          .&%o%%#$X* X%%%* &%%%#&.+%$%% $#%##",
"##$**%#$%@.$%$$&+O+           %%+.$##%#&+**$###$*&%#&@. *##%&**$",
"*$ ..**&*@o.  $&X+@o          % +oX**&#&@o. &$ ... %#+o .*$  .. ",
"X..  ..$&@.  .$%+o+O@oX       %&@oX  .$&Oo. ..    .&#++X    X   ",
"+oXXXoX.$@oX o.$+ooo+@Oo      $#@+X  .%&O@.         %+OoXXXXoXXX",
"O@++@O++@OO@o@@++.ooo+@O.    .*%@+o. *#XOoX        .&+O@O@++@++O",
"OOOOOOOOOOOOOOOO+ oo+OOX     .%%@@o. *# +oo       .*%+OOOOOOOOOO",
"@OOO@@@@@OOO@@OO+.ooo+o*     *%*@o.  .%&+X.       *#&X*@OOOO@@OO",
"Xo+@....oo@+.o+O+Xooo@o  .X..&#*@o   .%&@X       .*%$*# X+@X .o@",
"              @O+.ooo+@Xo@+@@oX$+o. .*#XOo.       .*#*%%*.X   .X",
"      .X...   @O+..o+@@@@+++@@OO@oX   %.OoX   .    &#**#*. ..   ",
" X.  . .XXX   @O@+oo@O@O@   o+X.O@X  .%&O@o   X    %$o$%.  .XX  ",
" Xo X.        @OX&o.X.X@O*%##$%#@Oo. &#&Oo.X.X.    $*+#*.oX  .. ",
"*$ X.  **.. . XOX%. X. oOoo*#%#%@oX. &#&+X.*oXX.  .*%X# X $ ..  ",
"###&%####&$#$&*OX#& *&  @@o   %$@oooX+&&@XX*oXoo..o.%&%#&%##$&%#",
"*.$*&&*&&$%$*%#o+$%&$$&$+Oo  .&*OO++@O@@OOX.++O+o+@+oX && &%$%$*",
"+o&$.OX&.XX&&* &*X+o.. X@Oo  .&$+X+Xo++XXXo+@+.o+++XXX@.$& XX*&&",
"*%##.@%#$$#%#%%###$%####o@oX .%#o%%##$$###%$Xo#%$&%%#%+*##%%####",
"##*% @.*#%&  %#$.&$$*. #X+oX &%&@o. $#%& .%#.Oo $#&. $+@X*$##%$*",
"&&.% +X.* .   *  ...   #X+oX $#*O+o..* .  *#&Oo  *.. #XOo  ** . ",
" .*#.Oo       .      .&#X@o. .$#@OX      .*#$O+.    %%oOo   .   ",
"  $#.O+.             .$#+@.  .$%@+X       .$$O+o   *#%++oX      ",
" *##.OoX             *%&@@X   % +oX        %*@oX   .*#X@oX      "
};
