/* XPM */
static char *ebef8ea2e1c141e4c9a105630dbca20f7l3Ewef9vIp3fbZS[] = {
/* columns rows colors chars-per-pixel */
"64 64 76 1 ",
"  c black",
". c #0C0B1A",
"X c #383075",
"o c #120F25",
"O c #030306",
"+ c #201C43",
"@ c white",
"# c #3A3277",
"$ c #6772A9",
"% c #06050D",
"& c #2D265C",
"* c #332C69",
"= c #191634",
"- c #3F397D",
"; c #4C4989",
": c #4E4E8C",
"> c #3B3379",
", c #241F49",
"< c #15122C",
"1 c #444082",
"2 c #545794",
"3 c #646FA7",
"4 c #171430",
"5 c #5E649E",
"6 c #3D367A",
"7 c #565A97",
"8 c #626AA4",
"9 c #26204E",
"0 c #36306D",
"q c #484587",
"w c #1B1B1B",
"e c #0A0A0D",
"r c #4F4F52",
"t c #3C4263",
"y c #8B90BA",
"u c #C8CBDC",
"i c #121213",
"p c #EDEEF5",
"a c #CFD1E3",
"s c #292553",
"d c #BEC2DA",
"f c #999FC5",
"g c gray58",
"h c #181A27",
"j c #A1A8CA",
"k c gray24",
"l c #DEE0EC",
"z c #595E9A",
"x c #7A83B4",
"c c #202022",
"v c #242438",
"b c #525490",
"n c #ABAECC",
"m c #6D77AD",
"M c #F8F9FB",
"N c #B5B6D1",
"B c #E7E6ED",
"V c #9B9A9E",
"C c #2C3149",
"Z c #C5C5C5",
"A c #37325A",
"S c #7880B1",
"D c #464574",
"F c #6C6C6B",
"G c #7873A2",
"H c #717BAF",
"J c #51567D",
"K c #AAAAAA",
"L c #585664",
"P c #959ABF",
"I c #A9A6C0",
"U c #70708F",
"Y c #8785A1",
"T c #7A84B4",
"R c #7B7B85",
"E c #0C3025",
/* pixels */
"###################*%99                                         ",
"71X#####>##>#####>&<,=.                                         ",
"$;X####Xs**sX#X##&+<,. Oo<.               %=rc   kk    Oo<.     ",
"$;X>-6X&.,+%&11##4<&.O %*-s%     OO       oDur   gg    %*-s% OO ",
"$;X-5q9.&4O %Vn##0,.&o %*2b&%    ++       Oewe   ii    %*2b&%++ ",
"$5:6q21,<%   kk=0+=,4%  o0q*% hte..      CC             o0q*%.. ",
"$5:6q21,<% Oo% O+==+O %oO49+O hte        CC           %oO49+O   ",
"$:6-5:s.&o .&o   ++  O4&%                           % o&%       ",
"$32>-7b&. o&.O   OO  +,%                           %&oO%        ",
"$2:261:bs.%oO        ..         OFF          CC    OoRF         ",
"$2:261:7:9vre  Oo<.  ..          FFO         UU      FRvO       ",
"$32->27151Guw  %*-s% ++    OweOe OO  ee      gg       vJe       ",
"$:;5-6;51>-De  %*2b&%OO    wZrvJe    tt      ii       Oe        ",
"qb2:71-q>##*%   o0q*%      ercevO    h,+O ht%     .sDh       == ",
";2:621XX###0=%%oO49+O ivO    .. o<.   vUi.s:=o<oOh,sDh       == ",
"8qX6;-#####X*<<&%     vJe    ++%*-s% OrucA:;;;;D.DD   ewO       ",
"-6X;aGX###>*.,,%      Oe     OO%*2b&% =;0IpBBBBaD>s   rZw       ",
"71X-G:X##yyX9==+O              Oo0q*%<JNNB@@@@@MdNY+O cre       ",
"71##XX###yy-GA=+O                49,4Jn@@@@Mauua@BNGv%          ",
"-6########0DuU+     %O Owe       ii%*N@@@@@pxHHSlfPu;<          ",
"8qX######>sewiO    %&o wZr       gg%*N@@@@@pTdd$SHJc0<          ",
"$5:X#####yR        Oo% erA=      krAIB@@@ddMaNy$$mDOo+4         ",
"$$5q>X###fY              ==       o:p@@@@dnuay33zzt  99Ovi      ",
"$$35:-#>-7t   ewO                 o;B@Mp@@u$$3381-s  AAeJv      ",
"$$z:aGX-5:s   rZw                 <;B@ayp@u$$::$88t  VVOeO      ",
"$$8zG:X6q2t   cre44   .+O         o;B@umPla3:--:3tCteKKigk      ",
"$$87;-X6qDC      9&oO.=,4% erc    <;B@umfdn8-1162=ht%KKigk      ",
"$$z15;6-5v    O% +0*.,,.&4OwZr    oDaMuSlf$8172#*o OwVg         ",
"$$35172>6<    o&%O=X*<<&.,+Owe    O.DdamSm$$8;6*.O wZFi         ",
"$$$3z:::=% igL+<,.o##&+<,=.       kV1Na3$$5;;9<oO  wBL    hte   ",
"$$$3z::b=% cBU+<,.o##>&<,.   ..   kVAYNPJDt99.    cFVk Oo<,te   ",
"$$35172#*4OwZro&%O4*X00*%    ,+  ee  +GucO     OwwFZw  %*-s%    ",
"$$z15;6*.,+OweO% +,.*==*%    OO  tt  Ov;0o     wZBVwO  %*2b&%   ",
"$$87;-#X9==+O4=O+==9X&+oO        hh   %<<+9AVKKVFLk  CCOo0q*%   ",
"$$826X##>+=,4++4,=+>#&+oO                49AVKKgi    CC  49+O   ",
"$$7######-s.*==*.9>##4<&.O       ee                             ",
"$$7######2b*X00X*X###0,.&o       tt                             ",
"$$7X#####1:26::######+=,4%       h,+O==O+.                .+O   ",
"$$5q>####1:26SS######+=+O    kroO .,4++4,=.        erc    .+O   ",
"xm$81--->22>-nn######0+      gI*%OO%&oo&.,,%       wZr          ",
"pf3$8885-66-5H5######=O      iv*%++ %OO.&<<&%      Owe          ",
"@lj3$$$3z117;fP######&4      O%<,==9994 o++oO         hte       ",
"@@lfm$$$$2:7;fP######5L       %<,rL>>>&o ==       %oO hte       ",
"@@Mlym$$$$z18$7######nV      O4&.Vn####*.O        o&%           ",
"@@aylf3$$$38$$7######qA      +,.&11####X*o        O%            ",
"@@pujx$$$$$$$$7XX####X*+O44O+==sX#X#>++>>&4               kgi   ",
"@@@Mnx$$$$$$$$5;;-X###>0=&&=0++>###Xs==999=        Oo<.   kgi cL",
"pMMppf3$$$$$$33$$:6###############X&.,+    Owe  %O %*-s%      rl",
"Taaxxm$$$$$$$::$$32##############>s.&4O    wZr %&o %*2b&%     ec",
"aNyHdy3$$$$3:b2;;;1###############*,<%     erc.,<+=Oo0q*% .+O   ",
"aySjuNy$$$82;2:XXXX########X######*,<%       .=,<+=  49+O .+O   ",
"xmflyud$Smz15qX###########-;6####>s.&o      %,,.&o %%O          ",
"pfmyljHSlf351>###########XGa;X####X&.O     %&<<&. o**o          ",
"fdaujSyaMlf;71X###########:G-XXX#X5IA.    kgv++o 4&>><    hte   ",
"fdlMnfd@@@d;7:1###########XXX1;q>X5IA.    kgv+=Oo+&X9.    hte   ",
"@nn@@@Mpppd8177---6#######6--z$81>>*.O     %&o %&<=*.O   O%  OO ",
"@Mp@@@axxxH$8;;8882######Xq883$$8qXX*o      %O  %,0X*o   ++  ++ ",
"@@@@@dy$$$$$3zz$$$8b6##X#:5$$$5;;2:##&4        O+Yy0=+=  .rgi.. ",
"@@@@@f3$$$$mfjy$$3TPb--q67$$$5:XX::##>&<<%     O+Yy04++oO kgihh ",
"@@@@pf3$$$$xp@u$$Hjlyb;51z$$$;>->####66##=O  ii %,0##4=*% ewOtt ",
"@@@pym$$$$$xp@u$$duylP2153$$$qq5-####22##0+  gg%&<4##00*% rZw%e ",
"@@ljuy3$3$3SpdndHyNujdjz3$5:3;-q6#X62::26#*99rr,<+&###>*% cre   ",
"@@ljuNymfxxnMdnujSyujdn$$$5;2:1X##-;7:23:-#>>++0=&>####*%       ",
"@@@pTaaxpff@@@uTpj3xpj3$$$$8-77##X;8-7$$$;X############*%       "
};
