/* XPM */
static char *_04b023eb8154b72bbdb5d495dc55fabrRxFXyizN26iT6Dx[] = {
/* columns rows colors chars-per-pixel */
"64 64 8 1 ",
"  c #06061A",
". c #11103D",
"X c #13194C",
"o c #090822",
"O c #0F0D36",
"+ c #162F5C",
"@ c #0D0B2E",
"# c #301350",
/* pixels */
"                                                                ",
"                                                                ",
"                                                                ",
"                                                                ",
"                                                                ",
"                                                                ",
"              oooooo                                            ",
"          oo....XXX.o                      @                    ",
"        o@####..XXXXXoo                      o@  oOOOo          ",
"       o##..X...XX++XX.o                     @o o@...Oo         ",
"      @#@oooOXX..XX+++XXo                      o@oO...Oo        ",
"     o#@ @@oO.XX.XX+++++.o                    o@o@.....O        ",
"    o#.   o@O..XX.XXX++++.                 oOOOo@oO..X.O        ",
"   o.#o  o@ooO..XX.XX+X+++o               oOXX.OoO..O..O        ",
"   o#.    o@ oO.XX..XXX+++.               OX..O.O....X.O        ",
"  o.#o     @o O..XX..XX+X++o              O..OoO....XX.o        ",
"  o#.      o@ oO.XXX..XX+++.       o@    o@oO.O....XX.O         ",
"  o#o       O  O.XXX..XX++++o      @o    @o@oOoO..XXXOo         ",
"  o#o         oO..XX..XX++++o        @o  o@oO.O..XX.Oo          ",
"  o#o       o@O...XX..XX++++o        o@o @oO....OOOo            ",
"  o#o       @ooO..XXX.XX++X+o        @o@oOO...OOo o             ",
"  o#o       o@oO..XX..XX++X+o    @o@ o@oO...O.Oo                ",
"  o#.        @oO..XX..XX+X++o    o@o  oO.O.Oo@oo@o      o@      ",
"  o.#o       oO..XXX..X++++@     @o oOO.Oo@o@o @o@      @o  oOOO",
"   o#.    o@ oO..XXX.XX++++        oO....O@Oo@ o@o      O oOO...",
"   o.#o   @o O...XX.XX+X++o       oO.O......@o           oO...XX",
"    o#.  o@ oO..XX.XX+XX++o      o@....XXX.Oo            O..++XX",
"     o#@o@ooO...XXXX+++++o       @oOOX....Oo             O.+X...",
"      o#..oO...XXXX+++++o        o@ooO@Oo@o             oO.+..O.",
"       o##...XXX.++++..o             o@o@o             oO.XX.OoO",
"        o@####...++.Oo                 o               O..+.OoO.",
"          oo..OOO.Oo                 @o@               O.X.OooOX",
"            o o o o                                   oO.X..OO..",
"                                             o@o      O.X..O...X",
"                                   @o@       @o@     oO.O.OoO.X.",
"                                   o@o               @o@o@o@.X.X",
"                                   @o@      o o o o@oo@o@o oO.XX",
"                @                         o@OOOO.OO.O@o@o oO.XX.",
"         @o@    o o                      o@oO..X+X..Oo@o@oO.XX.X",
"         o@o  o@OOOoo@o                 o@o@..X+X+X..OO.OoO.XXX.",
"          o@ o@oO..O@o@               o@Oo@oO.XXXXXX.OoOOO..XXX+",
"           o @oO....o@o       @       OoO..O.X++XXX+X.OOoO.XXX++",
"             OO.O...OO                OO.X..X++XX.XXXX..O..XXX+X",
"         o@  Oo@oOOOOo o@o           oO.X+XXX+X+X...XXXX..XXX++X",
"          O oO@o@o     @o@            O.+X+XXXXX......XXXX.X++XX",
"            OOo        o@o           oO.X++XX.X..OO.OoO.XXXX++XX",
"            @o                    o@o O..XXX....Ooo@o O..XXX+X+X",
"                                  @o@oO...XXX..Oo@@o  oO..XXX++X",
"                                  o@o oOO.....Oo o   o@..XXXXX++",
"                                       OoO...Oo @ o@o@oO..XXXX++",
"                    @                  o@oO..Oo  o@oOoO....XXXX+",
"                           @       o@o @o@oO..Oo @oO.O....X.XXX+",
"                                  OO.@ o@o@oO..OooO....O...XXX++",
"       @                   o    @oO.Oo  o o@...X....O...X.X.X+++",
"              o@Oo       oOOO   oO...Ooo@o@oO.X.X.....XX.X.X++++",
"          oOOo@oOOo     oO..Oo@o@oO...OOo@oO.....XXXXXXXXXXXX+++",
"         oO..Oo@oOO    oO....Oo@o@oO..X.O.O..O..XX+XXX+XXXXX++++",
"       oOO....OooOO    @...X..Oo o@..X.X...O..XXX+XXX+X+X+XXX++X",
"      oO.......OO.O    oO.XX+.Oo@ oO.XX......XXXXXX++XXX+++XXXXX",
"     oO..X+X.O...Oo   o@oO.XX+.Oo O.XX....X.XXXX++X+XXXXX+++XX+X",
"    oO.+++X.X..OOo   o@o@...XX.Oo OX.X..XX.XXX++++++XXX.XXX++XX+",
"   oO.+XXX....Oo     @o@oO...X..@oO.X..X.XXXX++++XXX.X.X..XX++XX",
"   O.XXX....OOo      o oO...XXX.oO....X.X.XX++++XX..X....X.XX+XX",
"   OXXX.....Oo      @oOOoO.XXXX.O....X.X.XXX++++X.X........XXX+X"
};
