/* XPM */
static char *result[] = {
/* columns rows colors chars-per-pixel */
"64 64 256 2 ",
"   c #6B6481",
".  c #776F94",
"X  c #78719B",
"o  c #6F6485",
"O  c #726663",
"+  c #605875",
"@  c #7E729D",
"#  c #645C79",
"$  c #887AA5",
"%  c #585370",
"&  c #84759E",
"*  c #555576",
"=  c #716A86",
"-  c #636481",
";  c #645E7E",
":  c #786F89",
">  c #83788B",
",  c #6D6187",
"<  c #786B8A",
"1  c #70658C",
"2  c #68627D",
"3  c #3E3B57",
"4  c #5C545F",
"5  c #695E7E",
"6  c #413D5A",
"7  c #776D83",
"8  c #887C91",
"9  c #665F75",
"0  c #575268",
"q  c #7B6D95",
"w  c #716791",
"e  c #8378A4",
"r  c #72688A",
"t  c #746D8C",
"y  c #8A7896",
"u  c #877B8B",
"i  c #414353",
"p  c #4A516E",
"a  c #82718B",
"s  c #574F78",
"d  c #7B7090",
"f  c #756587",
"g  c #686084",
"h  c #6F637E",
"j  c #776E90",
"k  c #5C5B78",
"l  c #8C80A5",
"z  c #917A8F",
"x  c #76698F",
"c  c #72687D",
"v  c #8389A4",
"b  c #7E7398",
"n  c #766894",
"m  c #433F5F",
"M  c #7B7594",
"N  c #554E5B",
"B  c #7C7083",
"V  c #6A5F6C",
"C  c #A088B0",
"Z  c #5E576C",
"A  c #8C7789",
"S  c #837383",
"D  c #8B7B76",
"F  c #776C97",
"G  c #454163",
"H  c #383550",
"J  c #847492",
"K  c #957E91",
"L  c #5C5D7E",
"P  c #8F7AA7",
"I  c #9984A3",
"U  c #3E485F",
"Y  c #51516E",
"T  c #776B69",
"R  c #6A6F8B",
"E  c #A98FA2",
"W  c #665B81",
"Q  c #716E93",
"!  c #5C5478",
"~  c #756B77",
"^  c #8C7B9D",
"/  c #917EAD",
"(  c #8C8089",
")  c #60577F",
"_  c #7E7272",
"`  c #4E5060",
"'  c #3A3754",
"]  c #A48BA7",
"[  c #6A6588",
"{  c #A4899E",
"}  c #7C7189",
"|  c #4B4A62",
" . c #5B5673",
".. c #6B6477",
"X. c #3A3E4F",
"o. c #47436A",
"O. c #917E99",
"+. c #454959",
"@. c #3C4254",
"#. c #847FA0",
"$. c #626487",
"%. c #566178",
"&. c #9489B1",
"*. c #62595D",
"=. c #8992B7",
"-. c #7581A3",
";. c #8171A1",
":. c #98878A",
">. c #514A71",
",. c #5C537C",
"<. c #494B5C",
"1. c #9882AA",
"2. c #716C7D",
"3. c #857E98",
"4. c #94869A",
"5. c #424855",
"6. c #BA9FB7",
"7. c #645B67",
"8. c #927E8B",
"9. c #7D83A9",
"0. c #6F646F",
"q. c #929ABF",
"w. c #9493AB",
"e. c #7B6F6D",
"r. c #656A86",
"t. c #857397",
"y. c #857570",
"u. c #867A9F",
"i. c #46455B",
"p. c #B095B3",
"a. c #7E799D",
"s. c #757183",
"d. c #928180",
"f. c #9E859F",
"g. c #605E73",
"h. c #9E8EB3",
"j. c #524F66",
"k. c #918691",
"l. c #8E8092",
"z. c #8E839B",
"x. c #848AB3",
"c. c #5B627A",
"v. c #8990AC",
"b. c #6B608D",
"n. c #827899",
"m. c #877FAA",
"M. c #8A759C",
"N. c #4E5776",
"B. c #474D69",
"V. c #3A385A",
"C. c #947EA5",
"Z. c #333E57",
"A. c #7D758A",
"S. c #696A90",
"D. c #595B6E",
"F. c #968BA5",
"G. c #343250",
"H. c #72748F",
"J. c #7D6C7C",
"K. c #A2A7CD",
"L. c #A1959D",
"P. c #6B605E",
"I. c #7E6D9A",
"U. c #8F83AB",
"Y. c #64597E",
"T. c #4E4968",
"R. c #6D6C83",
"E. c #9491B6",
"W. c #72738A",
"Q. c #515C75",
"!. c #9C8499",
"~. c #B498BE",
"^. c #5C6382",
"/. c #7B819E",
"(. c #9186A3",
"). c #AF92A7",
"_. c #8D8AAF",
"`. c #927E9F",
"'. c #4D5666",
"]. c #988095",
"[. c #8C8098",
"{. c #A79FC4",
"}. c #96A9CE",
"|. c #7C6A8F",
" X c #646475",
".X c #ABA0B9",
"XX c #8A87A3",
"oX c #9C9BC3",
"OX c #726573",
"+X c #9E8B9E",
"@X c #555A7C",
"#X c #38435E",
"$X c #9C92BA",
"%X c #5E5583",
"&X c #888190",
"*X c #A393BE",
"=X c #777A9E",
"-X c #4B466F",
";X c #737B96",
":X c #5F6984",
">X c #717398",
",X c #7E8CB0",
"<X c #9F90A8",
"1X c #666A7D",
"2X c #97A1C3",
"3X c #8696BE",
"4X c #A098AF",
"5X c #687291",
"6X c #9A9AB9",
"7X c #414A67",
"8X c #4E4A5A",
"9X c #625C85",
"0X c #2D2E4B",
"qX c #7D767F",
"wX c #6C7996",
"eX c #A98FB0",
"rX c #9A8C97",
"tX c #5B5258",
"yX c #9891A0",
"uX c #4C586E",
"iX c #747E9B",
"pX c #7C7C91",
"aX c #BEA7C2",
"sX c #90A1C3",
"dX c #9399B5",
"fX c #A0A6C1",
"gX c #A791B6",
"hX c #B5AAD0",
"jX c #9C89AA",
"kX c #7D879D",
"lX c #A89496",
"zX c #9193BB",
"xX c #7D7B87",
"cX c #B39FC5",
"vX c #2D3953",
"bX c #A28F8D",
"nX c #4E5175",
"mX c #B9ACAE",
"MX c #81757B",
"NX c #B19AAB",
"BX c #8A8797",
"VX c #89787F",
"CX c #3D3A65",
"ZX c #C7A8CC",
"AX c #B9A3A3",
"SX c #6C799E",
"DX c #D4B6D5",
"FX c #C7A5C0",
"GX c #AAA2A6",
"HX c #AF9D99",
"JX c #2B3548",
"KX c #757892",
"LX c #A7B2CF",
"PX c #C4ABAC",
"IX c #D6BAC2",
"UX c #D4BBB4",
/* pixels */
"j.].J.{ ).).A z E ).{ p.E :.B ).).FX6.FXIX_ i.B K z K { z K z ].K K K 8.].K A S ].rXN ].{ E ).K S OX].E 8.VXJ.!.lX8.J.S S { AXT ",
"G., p.6.ZX6.f.eX~.~.I ^ DXrXf aXZXZXZXDXPXO H 1 C.t.1.eX4.9 b 1.O.7 (.y z.[.c eXL._ H n FXFXFXNXK K { p.6.).p.FXNXz { { z AXAXT ",
"G.o.&.1.$ h.P P / jX% F a.2.! n $ e *XaXlX*.m , g.T.% + 9 9 # i.6 % # +     Z * l.O H s C ZXDX> f ~.~.DXDXcXgXaX8 `.~.] (.aXAXy.",
"i.V.%X> | % j. . .` 0 % j.9   Y T.U Q [.bXtXo.Y.c t.1.C O.jXaX_ ! 1.gX4.1..Xl.; 4.O 3 s P F.R s.r $.^.:X:Xc.Q.%.%.- Q.p nX.XAXD ",
"3 T.|.4.2 x C l.# y jXI ] ] eXp.l.5 [ (.HXtXG W > o / 1.y p.L.tXo.;.1.gX7 = z.  u T m -X$ k.Y U.*XdX/.iXH.a.XX[.8 8 z.pX* .XmX_ ",
"G.>./ +X+ I.: 9 o k k k * # Y [ 4.5 $ 4Xd.tXG W O.< |.& U.A.qX*.T.n P *Xz.z.2.# 8.e.6 -XX yXM oXK._.6X6X$XoX{.{.{..XhXBX* .XAXO ",
"G.s S...5 q ~   - k k  . .L   Y.4.h & rXT N m ! : n & / U.BX( *.% I.e U.3.h.&X+ l.e.3 s X BXb zX_._.q.9.oXoXoX2X3X,XiXw.Y 6XHXP.",
"H o.% g.o q S B 9 f 7 B : Y g g 8 5 & ( e.0.m T.# n ;.&.U.&XVX*.s e a.. M (.&X .qXP.' ) w BXu.hX{.K.v.X q.K.q.}.2X;Xq.fXk dXHXP.",
"' >.1.O.+ & 7 : 9 q eXp.4.+ 1 ; > + u.L.:.V m o : b.$.k r.W.&X7.,.Q $.- - r.s.# ( O 6 T.0 | 9XzXhXK.v.9.,X9.}.sXwX-.LXfXk 6XHXO ",
"6 ! $ +X0 q > : 9 b.@ 3.u + 1 < l.9 Z V T 4 G W ~ | i X.i ` g.V j.+.i <.i +.0  .( e.Z W P u - L x.dXx.x.,X9.SXsXv =.3Xv.k 4XmXy.",
"3 s ;.4.9 , > } 9 , - - : # 1 # B h P :.VX4 m Y.u y ] f.f.E +X0.< ] f.f.f.!.J.% &XD Z ,.@ u [.(.SXv._.2X=.sX=.-.q.}.sXv.* .XPXD ",
"V.>.) s...w > B ..; # # 2 # r Y.8 5 $ :.O 4 3 W > & gXgXh.eXrX4 ) gX~.ZX6.8 l.9 c VX0 o.P I u..XM _.hXK.q.x.E.oX}.q.K.dX* _.mXO ",
"3 >.f 4.h w qX< J } } y J <   # [.# } xXVX4 m ! ..! ;.h.cXNXd.tX-X;.*XhX~..X4.h k.T 0 CX;.(.& {.3.x.K.K.q.q.=.zXq.zXK.w.- 9.yXO ",
"H o.q +Xh   A 7 a a a : o y a |.l.+ O.k.lX7.G j.9 h % X *X6.bX*.G 9X;.E.E.F.&X# u T 0 m $ [./ {.dX9.SXq.2X2Xq.}.q.sXv.dXt 3.xXO ",
"H V.P 8 7 ; b t   5 o : 5 & y t R.+ u.+XlXV 6 g } ;.y ) e z.( P.| Y.e #.#.#.&X; S _ 8Xm P O.&.hXhXfX-.-.-.9.=.3X-.9.x.2X- yXL._ ",
"3 G I.4.c   + # ; 2 ; 2   Y k g.   .& <XlX*.G W a F & W e pX&X0.T.w S.D.i.k R.2 ~ ~ 6 s @ (.&.#.g.1XKX/.v R R /.v H.iXkX+ <XUXD ",
"6 >.n p.O.`.^ I ] a y I I 4.h C.I a d > L.P.G.W B o :   M s.xX7.0 1 t D. .=   Z S e.3 %X@ >XM g.* ^ I 4XXX#.l jX<XF.<Xs.b 6XmXO ",
"3 -XF XX: [ . X M d P &.&.yX..P jX^ 3.^ rX*.G ) I 8 a d I (.O.f.O.`.+X4 pX<XI <Xk.e.6 %XR %.KXxXY X H.%.uXr.S.>Xv /.KXg.$.v xXP.",
"H -XN.Q.1Xk 7XvXp ^.L ^.uX#Xc.nX@X:X- c.2.tX>.* nXL L * @XQ.p p p p B.j.g.Y * @XR.MX' ^.c.%.Q.'.p N.uX'.U Z.@Xp uXQ.uXc.U 7X1XT ",
"8Xi @.X.5.<.` ` X.5.@.@.` ` | j.X.i 5.i i 4 i.<.+.+.` i.i.<.<.<.8X8X0 0 8Xi i +.+.4 i.@.5.+.5.i @.X.5.` 0 i @.i JXX.+.<.` @.5.N ",
"j.z 8.A !.A S A z !.{ E !.J.A A 8.].K MXA 7.5 z 8.A 0.S z J.0.S S A A J.0.c S a K _ 0 K z ].8.A K { J.A { E 8.V J.{ VXVX8.VX).d.",
"0Xb.DXeX`.f.K O.] f.f.{ z J ] K ] 6.E +Xy.i >.d O.f.] f.).{ f.] ).a O.+XV y I y ].D H J E ).f.p.DX6.!.~.ZXaX6.Z h.gXjX.X.XNXmXD ",
"G.%XcX~.C.M.eXJ 1.C.I p.] C.O.f.~.6.NXu y.N V.) d ; r [ t 2   <  X| q 7 Z g 2 t k._ 0X-X1.h.#._.w.XXl a.#.w.&Xj.#.r.H.- M w.k.e.",
"' %X/ l b g M.C.1.  * X *XI C 6.NXaXL.S d.4 V.) ..+ ; k k g # + = x g < y J : # ( _ H CXe 1XU N.%.- r.L k ^.W.D.2 9 J (.4XGXL._ ",
"3 %X/ 1.a f M.C u  .  0 s F m./.> ~ V z.:.4 V.,.} q P / / l   t.F.I.$ m.m.l 8 # S _ X.CXl xX#.$Xh.h.$X{.K.K.dXt E.1.{.fX>XmXPXO ",
"' -X@ P M.C.|.cXu d , gXa ) h.2.g.~ s.z.bX*.V.! : w $ P u.= #   > j @ @ m.l A.# 4.e.i CXa.r.>X_.oXK.K.}.sX=.r.a.#.x.LXLX1XA.HXtX",
"m -Xs ;.I.P u.$XrX< f n aXd & F.rX~ 8 s.~ 7.' s > 1 n . j 5 c ..h 8 x F U.&.u  .B _ 8XCX=XH.$.=X-.-.SX3X}.v r _._.x.}.fXR w.e.P.",
"' W + T.% Y B.7XR } J 1 *Xh.l gXS u u ~ ~ N G ! 7 b . t   o # < A.7 > = [ a.s.+ > O 4 G._.v >X5X=.=.=.-.}.kXS.9.zXsX}.LX- 6XlX*.",
"H s t.y `.t.M.d . |.`.& l h.{.cXrXS S ( e.N T.%   t j o   2 5 o :     = 7 = s.k S P.8X0 # - a.@XS.,XSX5X-.;XS.9.,X3X}.fXc.fXmXO ",
"H s w / 1.I n.u.M.t.*Xn.M.$XXXH.s.MX( 8.T N G + B ; o <   h 5 t.(.> o   t 8 B + 8.T 0XI.<X..j >  .- KXH.;X9.>Xx.3X3XsXsX^.=.GXy.",
"3 >.1 I.M.~.c f h C.*XJ &.3.9 a +XE :.:.d.4 ' W 7 Y d 2.x   1 j t [.2 y 2 t 0.% &XO H w hXB $.&.(.E.E._.LXa.>X3X3X,XwXkXL v.GXD ",
"3 T.|.|.M.C A z jXcXC / 3.OXI .XrXu :.:.bX*.6 W B  .; : #    .w 3.9 = 2 = 7  X0 V O G.9X{.2.* L =XoXv.v sXfXR r.5X%.:XR  .6XGXy.",
"H o.n |.M.C ~.cXW.e *Xl h P $X<XL.k.u 8.d.8XG W A.< o + : 2   ; - R.; : = R.A.# l.MXH %X&.0.L Q * zX2X-.x.}.q.5X-.v v /.* K.mXD ",
"' >.W 1 F m.a.'.j.Y S.b @ m.U.hXZXPXlX8.d.4 V.) A.q ^ b + = 2 M A.  <   j u.n.# B T ' %X(.0.Q t ! x.sX5Xx.;X5XwX:X=X2Xv B.,X.XD ",
"m G @XB.#XZ.U + < ^   ; X _.$ $Xw.( ( :.:.O H s 7 I./ n.<  .= 9   t   j $ U.3.# 8.T 3 o.&.qXt 5 m.=.-.:X-.r.q.fXv.^.-.v D.p 1X*.",
"| T.p 5 a r g o O.r h.j ) / & XX&X2.s.qXd.O H ,.7 n & b l d  .7 = = o @ $ l z.; u _ 6 T.M qX5 e 9.wXR 9./.$.q.2XdXv.R KX- A.k._ ",
"6 J Z , p.} f , h.A.w l x b.Q R. Xg. X2.( O H ,.A.w @ e l l o [ =   x U.#.j 7 # u e.3 s M qXL 5X5Xr.9.2X/.$.,X,X3Xq.fXw.Y m.mXd.",
"V.b.a s / O.|.& XXh u.; ;.. - R.A.&X( 0.4 4 3 s n.t @ e $ #.l     x X X @ l A.# l.O 3 >.u.~ g.R.W.1XuX^.H.R Q.p ^.iX5XkX% /.L.y.",
"' ,.C B ) C C.U. X1 h.y w a.#.3.s.R.3.:.T N G ! R.2 W $.S.X b n.M . w 1 Q . s.% > P.' ) U.<XE E { L.9 [.8 9 J z.: t M 3.  _.GXy.",
"3 vXnX(. .X u.'.Y ;.a.n.r S.r.D. X: [.&XD N m Y.> ..h 2 : 2 J < J 7 < a 7 a } o > O G.o.$.e $X$X*X4XZ _.XX&.6Xv.iX;X;XKXj v GXD ",
"0 7X0XN.r.@X'.X.vX#XR c.%.uXp - - W.g.R.( 4 >.,.Q g.g r 3.9 o . d c ; x Q . M j A.d.N #X#XN.5X:X%.%.U R :X^.wXpXW.c.:X^.c.Q.r.y.",
"7.0 G vX#XU 5.| Y Z.Z.'.@.U N.'.JXvX@.Z.0 N B.U vXvXZ.vXJXU X.Z.#XB.B.Z.Z.Z.U * c.MXV j.#X0XU +.U 5.Z.JXJXZ.#X'.'.U Z.#X#XU Z.5.",
"0 ~ OXOX0.4 OX~ OXV V OX~ 7.Z 7.A V 0.7.OX7.j.V 0.7.7.V 9 Z ..Z Z Z 9 9 V V 4 0 Z *.N V J.OX0.0.4 V ~ J.B ~ 7.4 4 V J.OX0.7.MXMX",
"G.W I 6.].`.p.f.S a ] ] ] z !.{ E E ].).AX*.T.J z z A J.S A A K K K ].!.].z z z l.:.0Xs ~.FXE ].!.E { ] p.NX].A K E ).z ].6.IXbX",
"3 ,.b.C C C.u.P C C C C.C jXt.1.C I C.NXbXO G.,.x r M 2 q j , x r d M j t j j u.u _ ' CX/ h.C.C cXaX6.] 6.p.] eXeXp.6.O.1.aXHXP.",
"m g x @ [ j = 9X1 .   Y g = 2 p Q   n 4.D tXm % Z T.Y k * % % j. .+ g 2 # ; % % ( O 6 V.x > B.@X$.^.KXM 3.n.n.M t Q pX- S.W.P.O ",
"3 s k Y  .k # # % 0 Z # % % + g.* + n &XD *.6 5 > o < F @ b q & $ / P C.^ & } Y.k.T i.6 ) E D.c.k ; j.k - R >X=X>X:XR H.c.s.( y.",
"6 % f }   |.M.t.M.^ ^ M.^ y ^ `.: Y.r 2.( *.6  .g.r M.< w F w e e $ $ $ u.u.: ! > e.6 m 9X4X2.e _.E._.v -.wXwXiX9.v.v E.w.yX:.y.",
"6 , P y  .x 2 Y * nXnXY nX* Y 9Xn.# b k.MXN G % c n & & J r , $ $ $ @ @ $ l }  .> T 3 G b.w.2.m.=.v.H.1XD.0 D.Q.^.- &.E.w.yXlXy.",
"G b.n 7 + q ..; - L L ; 9Xg 1 * = ; n +XD 4 6 ) } 1 n.w m.J , X X Q F X g - 2 ! 8 T ' >.Q r.R.x.,XKXD.Z 8 4.l.~ - L m.6Xw.L.bXT ",
"X.G + c # n 2.2 [ g [ [ , ) 1 r =   , > y.7.6 ,.7 w n.[ X $ . Q Q Q [ ; 2 = 9 ! l.P.3 o.T.D.Q =.v  XT.@ &.F.F.yXOXL ) {.BXL.d.e.",
"' ) / u + @ c   r x h f < W , r M # x u y.N 6 Y.} 1 $ t X @ $ U.a.w F X e $ t ! u O 3 % q <X..,XXXj.g . #.E.w.yXqX0 9X6X XyX:.D ",
"3 s F a 5 I...o , f t.`.d 5 , , j # 9X8 y.8XG 9X7 1 $ : w $ e e M 1 , @ F X = ! > T 3 %Xq (.~ ;XBX| [ Q =Xv kXXX&Xi.X v.` w.lXD ",
"' -X@ 8 5 q c   g , b.. d ; 1 n j 5 W I y.N m ,.2.g - ; w a.= d H.+ q U.u.t   ) 8 O 3 s f I c yX&X| $.Q =X;X/.kXxX<.S.kXD.w.bXe.",
"X.o.;.} 5 I.c   o g L L [ Y.1 q r # I.[.D *.V.! 7 x n.r w - n A.g.Y.$ $ l :   ) u P.3 >.b.pX .4Xk.Z o.=XwXwXiXkXD.k >Xv.r.XXL.O ",
"i.>.I.}   n ..= < r 1 r o + , 1 d Y.n u D tXV.) } 1 e $ @ . k   # ;.m.$ #.: =  .B O 6 o.w s.* -.BXk.5.7X^.%.%.+.0 . x.dXr.iXk.O ",
"m ! F a   x ..r x |.f o f < x g b + [ l.d.tXV.%XB 1 @ e u.b u.d b.e e m.a.t f + ( P.6 -Xw BX- SXv 4X4.Z <.` <.  u.U.E.dXH.v L.e.",
"6 Y.I.J 5 q ~ h c 7 c f < < f o d # , z.:.tXV.) B   . . X u.n.  F ;.e e M t = ! l.O 6 -XF 4.W.9.iX=..X4XjXjXF.jX&.6XoXdXpXBXGXy.",
"H 5 ^ > r F . . j . q q n j x . j o 1 3.:.tXV.) c w & b . F j d q @ @ X j . t s u O 3 o.@ k.R.=XiX,X=.zXzXE.zXzXx.=.dXv 2.E AXD ",
"0Xb.1.8 9 r   ; # 5 # ; # # 5 5 o # q z.d.4 m ! 7 1 b & $ b q $ d X @ X b F = * A.e.H >.& u ..W.W.1XR H.W.H.=X/.iX;XkX9 < IXUXy.",
"H b.X l y J J y y < ^ J.f `.y a a t.$ z.d.N G ,.2.# f t     h   c 2 h h h h Z  .&X_ G.-X& jX4Xk...d F.[.z.8 8 pXF.<X2.; e 4XHX*.",
"3 9X[ Q R $.S.S.L n &   X X . t r.L >X3.y.4 G W c < `.8 # & t.t.y ^ ^ t.^ y 9 n.> _ G.-X$.:XwX1XY S.=Xv v KXR 5X/.pX X$.S./._ T ",
"m @XN.N.D.B.7XU 7X@XL %.uXU p p p B.7XN.qXtX>.* | B.@X$.[ * nXp 7X7XB.p p p U N.1XMX0XnX%.uXc.'.B.N.N.Q.:X%.Q.N.uXQ.%.%.Q.uXxXd.",
"8X5.@.X.5.` ` j.i.@.i X.+.<.U '.+.5.@.X.+.N i.<.<.i.| +.` ` '.` <.<.| | ` ` +.<.<.4 i.@.i @.i 5.@.i i X.X.i @.i @.5.+.X.X.JX@.V "
};
